<svg height="512" viewBox="0 0 64 64" width="512" xmlns="http://www.w3.org/2000/svg"><g id="_04-Upload" data-name="04-Upload"><circle cx="32" cy="32" fill="#42c505" r="29"/><path d="m37 52a29 29 0 0 1 -27.448-38.357 29 29 0 1 0 49.9 27.714 28.939 28.939 0 0 1 -22.452 10.643z" fill="#359e04"/><path d="m35.623 7.625a2.633 2.633 0 0 0 -.585 1.137c-.267 1.337.919 2.51 2.082 3.257a34.554 34.554 0 0 0 3.294 1.792l4.562 2.272c1.655.825 3.554 2.042 5.449 1.907a3.221 3.221 0 0 0 1.41-.349c1.63-.955 1.279-3.074.574-4.492a9.966 9.966 0 0 0 -3.409-3.597c-3.039-2.093-10.3-5.652-13.377-1.927z" fill="#4ce306"/><path d="m52.106 19.422a1.1 1.1 0 0 0 .011.964 2.123 2.123 0 0 0 .461.514 5.809 5.809 0 0 0 .976.758 2.382 2.382 0 0 0 1.255.342 1.117 1.117 0 0 0 .61-.181.946.946 0 0 0 .22-.241 2.414 2.414 0 0 0 -.664-3.208c-1.154-.921-2.441.049-2.869 1.052z" fill="#4ce306"/><path d="m30.02 27.57-.02 6.86-12-3.43z" fill="#848ab8"/><path d="m51 36-5 1.43-9 2.57-5-5 2-.57 12-3.43z" fill="#f7f7ff"/><path d="m46 37.43v9.57l-14 4v-16l5 5z" fill="#d3d9f2"/><path d="m46 31-12 3.43-.02-6.86z" fill="#848ab8"/><path d="m40.39 21a2.283 2.283 0 0 1 .61 1.57 2.242 2.242 0 0 1 -.61 1.56 2 2 0 0 1 -2.96 0l-3.43-4.13-.02 7.57.02 6.86-2 .57-2-.57.02-6.86-.02-7.57-3.43 4.13a2.01 2.01 0 0 1 -2.96 0 2.32 2.32 0 0 1 0-3.13l6.99-7.39a1.917 1.917 0 0 1 2.8 0z" fill="#fff"/><path d="m32 35v16l-14-4v-9.57l9 2.57z" fill="#a8accf"/><path d="m32 35-5 5-9-2.57-5-1.43 5-5 12 3.43z" fill="#d3d9f2"/><g fill="#359e04"><path d="m23.61 24.13a2.32 2.32 0 0 1 0-3.13l4.514-4.773a1.991 1.991 0 0 0 -.524.383l-6.99 7.39a2.32 2.32 0 0 0 0 3.13 2.01 2.01 0 0 0 2.96 0l2.009-2.419a1.983 1.983 0 0 1 -.489.069 2.052 2.052 0 0 1 -1.48-.65z"/><path d="m36.833 23.411-2.834-3-.016 6.176.447.539a2 2 0 0 0 2.96 0 2.242 2.242 0 0 0 .61-1.556 2.3 2.3 0 0 0 -.39-1.283 1.89 1.89 0 0 1 -.18-.157z"/><path d="m30 20-2.998 3.61.012 4.818 3.006-.858z"/></g><path d="m18 47v-9.57l-5-1.43-3 3 5 1.43v9.57l14 4 14-4v-2.143l-11 3.143z" fill="#308f04"/><path d="m46.334 37.334-.334.096v2.142l2-.572z" fill="#359e04"/><path d="m30 34.43.014-4.863-8.515 2.433z" fill="#60658f"/><path d="m34 34.43 8.501-2.43-8.515-2.433z" fill="#60658f"/></g></svg>